name C:\Users\antoi\Documents\MyRepositories\upper-imu-dc\Results\main_tracking\Case_76\FLX01_orientations_groundFrame.mot
datacolumns 13
datarows 14
range 0.51000000 0.64000000
endheader 
time	radius_imu_[0][0]	radius_imu_[0][1]	radius_imu_[0][2]	radius_imu_[1][0]	radius_imu_[1][1]	radius_imu_[1][2]	radius_imu_[2][0]	radius_imu_[2][1]	radius_imu_[2][2]	radius_imu_x	radius_imu_y	radius_imu_z	
          0.51000000	          0.69691275	         -0.02460548	          0.71673370	         -0.13537506	          0.97693023	          0.16516935	         -0.70426289	         -0.21213650	          0.67750416	         -0.23912633	          0.79910708	          0.03529174	
          0.52000000	          0.69532148	         -0.02800980	          0.71815283	         -0.13481737	          0.97641874	          0.16861412	         -0.70594073	         -0.21406049	          0.67514872	         -0.24473740	          0.80114426	          0.04026147	
          0.53000000	          0.69370760	         -0.03147047	          0.71956888	         -0.13421414	          0.97589853	          0.17207158	         -0.70764138	         -0.21594368	          0.67276445	         -0.25039991	          0.80318128	          0.04533453	
          0.54000000	          0.69205828	         -0.03499738	          0.72099274	         -0.13356484	          0.97536802	          0.17554959	         -0.70937703	         -0.21778983	          0.67033709	         -0.25613060	          0.80523389	          0.05052695	
          0.55000000	          0.69035916	         -0.03860121	          0.72243628	         -0.13287302	          0.97482421	          0.17906009	         -0.71116031	         -0.21960806	          0.66784977	         -0.26195345	          0.80731936	          0.05585651	
          0.56000000	          0.68859539	         -0.04229407	          0.72391132	         -0.13214345	          0.97426327	          0.18261758	         -0.71300385	         -0.22140977	          0.66528431	         -0.26789717	          0.80945504	          0.06134373	
          0.57000000	          0.68675303	         -0.04608933	          0.72542818	         -0.13138104	          0.97368078	          0.18623846	         -0.71491908	         -0.22320733	          0.66262297	         -0.27399367	          0.81165627	          0.06701146	
          0.58000000	          0.68482069	         -0.05000127	          0.72699415	         -0.13059028	          0.97307180	          0.18994067	         -0.71691478	         -0.22501367	          0.65985002	         -0.28027704	          0.81393415	          0.07288433	
          0.59000000	          0.68279095	         -0.05404476	          0.72861216	         -0.12977494	          0.97243091	          0.19374361	         -0.71899582	         -0.22684199	          0.65695337	         -0.28678265	          0.81629350	          0.07898804	
          0.60000000	          0.68066151	         -0.05823502	          0.73027980	         -0.12893766	          0.97175226	          0.19766795	         -0.72116224	         -0.22870553	          0.65392568	         -0.29354623	          0.81873143	          0.08534866	
          0.61000000	          0.67843589	         -0.06258738	          0.73198878	         -0.12807962	          0.97102959	          0.20173534	         -0.72340885	         -0.23061735	          0.65076515	         -0.30060307	          0.82123641	          0.09199208	
          0.62000000	          0.67612341	         -0.06711719	          0.73372503	         -0.12720037	          0.97025624	          0.20596820	         -0.72572529	         -0.23259002	          0.64747563	         -0.30798719	          0.82378829	          0.09894352	
          0.63000000	          0.67373865	         -0.07183976	          0.73546943	         -0.12629767	          0.96942521	          0.21038930	         -0.72809692	         -0.23463548	          0.64406604	         -0.31573074	          0.82635924	          0.10622716	
          0.64000000	          0.67130004	         -0.07677031	          0.73719914	         -0.12536763	          0.96852917	          0.21502139	         -0.73050613	         -0.23676478	          0.64054916	         -0.32386366	          0.82891565	          0.11386598	
